<?xml version="1.0" standalone="no"?>
<!DOCTYPE svg PUBLIC "-//W3C//DTD SVG 20010904//EN"
 "http://www.w3.org/TR/2001/REC-SVG-20010904/DTD/svg10.dtd">
<svg version="1.0" xmlns="http://www.w3.org/2000/svg"
 width="40.000000pt" height="22.000000pt" viewBox="0 0 40.000000 22.000000"
 preserveAspectRatio="xMidYMid meet">
<metadata>
Created by potrace 1.10, written by Peter Selinger 2001-2011
</metadata>
<g transform="translate(0.000000,22.000000) scale(0.100000,-0.100000)"
fill="#000000" stroke="none">
<path d="M0 150 c0 -66 1 -70 23 -71 12 0 16 -3 10 -6 -21 -8 -15 -33 10 -43
l22 -9 -23 0 c-25 -1 -21 -21 4 -21 24 0 30 31 9 46 -18 14 -18 14 1 14 16 0
17 2 4 10 -12 7 -8 10 15 10 22 0 26 -3 17 -12 -17 -17 -15 -55 4 -62 37 -14
61 43 27 63 -13 8 9 10 82 11 63 0 95 -4 86 -9 -8 -5 -29 -7 -48 -4 -33 6 -33
5 -33 -33 1 -35 2 -37 14 -21 14 18 15 18 25 0 9 -16 10 -14 11 12 l0 30 13
-24 c10 -20 21 -25 60 -27 45 -3 65 10 30 19 -17 4 -17 5 0 6 9 0 17 6 17 11
0 6 -8 10 -17 11 -15 0 -15 2 2 9 18 8 17 9 -7 9 -23 1 -28 -3 -28 -24 0 -18
-5 -25 -20 -25 -14 0 -20 7 -20 21 0 15 4 19 16 15 12 -4 15 -2 10 9 -4 12 4
15 39 15 l45 0 0 70 0 70 -200 0 -200 0 0 -70z m390 0 l0 -60 -190 0 -190 0 0
60 0 60 190 0 190 0 0 -60z"/>
<path d="M24 187 c-3 -8 -4 -30 -2 -49 3 -31 6 -33 38 -33 35 0 35 0 35 45 0
43 -1 45 -33 48 -21 2 -34 -2 -38 -11z m56 -37 c0 -23 -4 -30 -20 -30 -16 0
-20 7 -20 30 0 23 4 30 20 30 16 0 20 -7 20 -30z"/>
<path d="M110 192 c0 -5 9 -17 20 -27 19 -17 19 -18 -3 -35 -27 -23 -17 -36
13 -18 18 10 24 10 27 1 6 -17 23 -16 23 1 0 8 -7 17 -16 20 -16 6 -16 8 0 24
17 20 21 42 7 42 -5 0 -12 -7 -15 -16 -6 -16 -8 -16 -24 0 -20 18 -32 21 -32
8z"/>
<path d="M214 187 c-3 -8 -4 -30 -2 -49 3 -31 6 -33 38 -33 35 0 35 0 35 45 0
43 -1 45 -33 48 -21 2 -34 -2 -38 -11z m56 -37 c0 -23 -4 -30 -20 -30 -16 0
-20 7 -20 30 0 23 4 30 20 30 16 0 20 -7 20 -30z"/>
<path d="M313 193 c-7 -2 -13 -11 -13 -19 0 -8 6 -11 15 -8 11 5 15 -1 15 -20
0 -16 -6 -26 -15 -26 -8 0 -15 -4 -15 -10 0 -5 18 -10 40 -10 22 0 40 5 40 10
0 6 -7 10 -15 10 -11 0 -15 11 -15 40 0 39 -7 46 -37 33z"/>
<path d="M154 40 c1 -28 5 -35 21 -35 16 0 20 7 21 35 1 26 1 28 -3 8 -6 -36
-30 -36 -36 0 -4 20 -4 18 -3 -8z"/>
</g>
</svg>
